<svg width="33" height="33" viewBox="0 0 33 33" fill="none" xmlns="http://www.w3.org/2000/svg">
<path d="M9.16616 31.3057H23.8338C26.6928 31.3057 28.1153 29.8555 28.1153 26.9827V14.442C28.1153 12.6603 27.922 11.8868 26.8171 10.7544L19.1932 3.00614C18.1436 1.92886 17.2872 1.69409 15.7266 1.69409H9.16616C6.32103 1.69409 4.88464 3.15811 4.88464 6.03088V26.9827C4.88464 29.8693 6.32103 31.3057 9.16616 31.3057ZM9.27665 29.082C7.85405 29.082 7.10825 28.3224 7.10825 26.9413V6.07231C7.10825 4.70499 7.85405 3.9177 9.29044 3.9177H15.4227V11.9421C15.4227 13.6823 16.3066 14.5386 18.0192 14.5386H25.8917V26.9413C25.8917 28.3224 25.1597 29.082 23.7233 29.082H9.27665ZM18.2679 12.4532C17.7292 12.4532 17.5082 12.2322 17.5082 11.6797V4.34588L25.4636 12.4532H18.2679ZM21.5826 18.3368H11.0997C10.6025 18.3368 10.2434 18.7097 10.2434 19.1793C10.2434 19.6627 10.6025 20.0356 11.0997 20.0356H21.5826C22.066 20.0356 22.4389 19.6627 22.4389 19.1793C22.4389 18.7097 22.066 18.3368 21.5826 18.3368ZM21.5826 23.157H11.0997C10.6025 23.157 10.2434 23.5437 10.2434 24.0271C10.2434 24.4967 10.6025 24.8558 11.0997 24.8558H21.5826C22.066 24.8558 22.4389 24.4967 22.4389 24.0271C22.4389 23.5437 22.066 23.157 21.5826 23.157Z" fill="black"/>
</svg>
