<svg width="26" height="26" viewBox="0 0 26 26" fill="none" xmlns="http://www.w3.org/2000/svg">
<g clip-path="url(#clip0_160_159)">
<path d="M3.82364 22.3546C4.99689 23.4857 6.40059 24.4077 8.03476 25.0363C9.66893 25.6648 11.4917 26 13.461 26C15.6609 26 17.6931 25.6648 19.5158 24.9736C21.1709 24.366 19.7463 21.2861 18.5311 21.7891C17.1905 22.3548 15.5561 22.6481 13.6913 22.6481C12.2247 22.6481 10.8841 22.4176 9.71062 21.9779C8.53737 21.5377 7.51078 20.9092 6.67275 20.0923C5.83471 19.2752 5.16429 18.2696 4.70337 17.1173C4.2215 15.9438 3.99104 14.6032 3.99104 13.1366C3.99104 11.7538 4.2215 10.4339 4.68242 9.26069C5.14333 8.08745 5.77186 7.0399 6.60989 6.20187C7.42698 5.34288 8.43262 4.65151 9.58491 4.16964C10.7372 3.68777 12.0362 3.43636 13.4608 3.43636C14.7809 3.43636 15.9959 3.62492 17.0855 3.96013C18.154 4.29534 19.0759 4.81911 19.8508 5.51049C20.626 6.20187 21.2336 7.0399 21.6736 8.04554C22.1137 9.05118 22.3232 10.2244 22.3232 11.5653C22.3232 12.3405 22.2394 13.0737 22.0716 13.7651C21.9042 14.4146 21.6947 15.001 21.4014 15.4621C21.1288 15.9023 20.8146 16.2583 20.4377 16.5097C19.9975 16.803 19.348 16.9706 18.8452 16.803C18.2167 16.5935 18.3426 15.7136 18.3843 15.1898C18.4473 14.4775 18.6357 13.807 18.7823 13.1156C19.0128 11.9843 19.2642 10.8739 19.4947 9.76351C19.6204 9.15594 19.7668 8.52741 19.8925 7.91984C20.0601 7.14466 19.4735 6.39043 18.6566 6.39043H17.7348C17.1691 6.39043 16.6663 6.76754 16.5194 7.31226C16.4568 7.56367 16.3937 7.77318 16.3937 7.77318C15.933 6.34853 14.2358 5.95046 12.8949 5.97141C11.1351 5.99236 9.52185 6.89325 8.3486 8.17125C8.24385 8.29695 8.11815 8.42266 8.01339 8.54836C7.40582 9.28164 6.9449 10.1406 6.63064 11.0415C6.29542 12.0053 6.12781 12.9899 6.12781 13.9956C6.12781 14.8548 6.25352 15.6717 6.48398 16.4049C6.73539 17.1594 7.09155 17.8086 7.55247 18.3534C8.01339 18.8983 8.60001 19.338 9.29139 19.6523C9.98277 19.9666 10.758 20.1342 11.596 20.1342C12.2245 20.1342 12.8111 20.0294 13.3349 19.8411C13.8377 19.6525 14.2986 19.4221 14.6967 19.1497C15.011 18.9402 15.3043 18.6888 15.5347 18.4581C15.6812 18.7307 15.849 18.9609 16.0795 19.1914C16.6663 19.8199 17.567 20.1342 18.7614 20.1342C19.7042 20.1342 20.6258 19.9458 21.485 19.5687C22.344 19.1914 23.119 18.6048 23.7684 17.8507C24.397 17.0963 24.9207 16.1747 25.2978 15.0852C25.6752 13.9958 25.8635 12.7387 25.8635 11.356C25.8635 9.47041 25.5073 7.79434 24.816 6.39064C24.1246 4.98693 23.1818 3.79273 22.0088 2.84994C20.8565 1.90716 19.5156 1.21578 18.0281 0.733908C16.5618 0.230459 15.0323 0 13.461 0C11.6383 0 9.89939 0.335214 8.28617 0.98469C6.67296 1.65512 5.2483 2.57695 4.0541 3.72925C2.83895 4.88155 1.87521 6.28525 1.18383 7.85657C0.492456 9.42788 0.136292 11.1878 0.136292 13.0314C0.136292 14.8958 0.450554 16.6559 1.10003 18.2272C1.72856 19.8195 2.65039 21.2023 3.82364 22.3546ZM15.1578 13.5552C15.0114 14.1209 14.8019 14.6656 14.5084 15.1684C14.2151 15.6503 13.8589 16.0481 13.398 16.3624C12.979 16.6557 12.4761 16.8026 11.8476 16.8026C11.4495 16.8026 11.1353 16.7188 10.9048 16.5719C10.6534 16.4043 10.4439 16.1948 10.2972 15.9224C10.1296 15.6291 10.0249 15.3149 9.96203 15.0006C9.89918 14.6654 9.85728 14.3511 9.85728 14.079C9.85728 13.4923 9.94108 12.9057 10.1087 12.2981C10.2763 11.7115 10.5068 11.1668 10.821 10.7059C11.1353 10.245 11.4914 9.86785 11.9314 9.57454C12.3295 9.30218 12.7694 9.17647 13.2932 9.17647C13.7122 9.17647 14.0477 9.23932 14.2989 9.38598C14.5503 9.53263 14.7598 9.72119 14.9064 9.95165C15.074 10.2031 15.1788 10.4964 15.2624 10.8106C15.3462 11.1668 15.3883 11.5439 15.3883 11.9001C15.3673 12.4239 15.3047 12.9686 15.1578 13.5552Z" fill="white"/>
</g>
<defs>
<clipPath id="clip0_160_159">
<rect width="26" height="26" fill="white"/>
</clipPath>
</defs>
</svg>
