<svg width="26" height="26" viewBox="0 0 26 26" fill="none" xmlns="http://www.w3.org/2000/svg">
<path fill-rule="evenodd" clip-rule="evenodd" d="M2.16668 8.98464C2.16668 12.75 5.23165 15.8026 9.01259 15.8026C9.70245 15.8026 11.2733 15.644 12.0375 15.0098L12.9928 15.9612C13.5544 16.5205 13.4027 16.6851 13.1529 16.9564C13.0487 17.0696 12.9272 17.2014 12.8335 17.3881C12.8335 17.3881 12.0375 18.498 12.8335 19.6079C13.3111 20.2421 14.6485 21.13 16.1768 19.6079L16.4953 19.925C16.4953 19.925 15.54 21.0348 16.336 22.1447C16.8137 22.779 18.0873 23.4132 19.2018 22.3033L20.3162 23.4132C21.0804 24.1742 22.0144 23.7303 22.3858 23.4132L23.3411 22.4618C24.2326 21.5739 23.7126 20.612 23.3411 20.2421L15.0624 11.9972C15.0624 11.9972 15.8584 10.7287 15.8584 8.98464C15.8584 5.21922 12.7934 2.16675 9.01259 2.16675C5.23165 2.16675 2.16668 5.21922 2.16668 8.98464ZM9.01226 11.3631C7.69341 11.3631 6.62427 10.2983 6.62427 8.98474C6.62427 7.67122 7.69341 6.6064 9.01226 6.6064C10.3312 6.6064 11.4004 7.67122 11.4004 8.98474C11.4004 10.2983 10.3312 11.3631 9.01226 11.3631Z" fill="white"/>
</svg>
