<svg width="26" height="26" viewBox="0 0 26 26" fill="none" xmlns="http://www.w3.org/2000/svg">
<path fill-rule="evenodd" clip-rule="evenodd" d="M3.67661 2.3885C4.01261 2.1324 4.46684 2.09498 4.84022 2.29265L23.2569 12.0426C23.6116 12.2304 23.8333 12.5988 23.8333 13.0001C23.8333 13.4014 23.6116 13.7698 23.2569 13.9575L4.84022 23.7075C4.46684 23.9051 4.01261 23.8678 3.67661 23.6117C3.34062 23.3556 3.18415 22.9274 3.2758 22.5151L5.39024 13.0001L3.2758 3.48509C3.18415 3.07268 3.34062 2.64461 3.67661 2.3885ZM7.36903 14.0834L5.89979 20.695L18.3884 14.0834H7.36903ZM18.3884 11.9168H7.36903L5.89979 5.30517L18.3884 11.9168Z" fill="white"/>
</svg>
